<svg width="48" height="48" viewBox="0 0 48 48" fill="none" xmlns="http://www.w3.org/2000/svg">
<path d="M24 45.5C12.14 45.5 2.5 35.86 2.5 24C2.5 12.14 12.14 2.5 24 2.5C24.82 2.5 25.5 3.18 25.5 4C25.5 4.82 24.82 5.5 24 5.5C13.8 5.5 5.5 13.8 5.5 24C5.5 34.2 13.8 42.5 24 42.5C34.2 42.5 42.5 34.2 42.5 24C42.5 23.18 43.18 22.5 44 22.5C44.82 22.5 45.5 23.18 45.5 24C45.5 35.86 35.86 45.5 24 45.5Z" fill="#074C31"/>
<path d="M30.093 8.21456C29.8712 8.87606 30.0528 9.58859 30.5668 10.0741L32.6751 12.0654L32.1774 14.8773C32.056 15.563 32.3414 16.2428 32.9222 16.6516C33.503 17.0604 34.2585 17.1133 34.8939 16.7897L37.5 15.4621L40.1061 16.7897C40.3825 16.9304 40.6815 17 40.9791 17C41.3657 17 41.7497 16.8826 42.0778 16.6516C42.6586 16.2428 42.944 15.563 42.8226 14.8773L42.3249 12.0654L44.4332 10.0741C44.9472 9.58859 45.1288 8.87606 44.907 8.21456C44.6852 7.55305 44.1062 7.07988 43.3956 6.97978L40.4819 6.56952L39.1788 4.01123C38.8613 3.38743 38.218 3 37.5001 3C36.7822 3 36.1389 3.38743 35.8212 4.01123L34.5182 6.56952L31.6043 6.97978C30.8938 7.07988 30.3148 7.55305 30.093 8.21456ZM35.5872 9.01053C36.0183 8.94983 36.3909 8.68756 36.5837 8.3091L37.5001 6.50994L38.4165 8.3091C38.6093 8.68756 38.9819 8.94983 39.4129 9.01053L41.4621 9.29905L39.9793 10.6996C39.6674 10.9942 39.5251 11.4186 39.5987 11.8346L39.9486 13.812L38.1159 12.8783C37.7304 12.6819 37.2697 12.6819 36.8843 12.8783L35.0515 13.812L35.4015 11.8346C35.4751 11.4186 35.3328 10.9942 35.0209 10.6996L33.5381 9.29905L35.5872 9.01053Z" fill="#A1C038"/>
<path d="M23.6993 32.3C22.746 32.3 21.8893 32.0767 21.1293 31.63C20.376 31.1833 19.7793 30.5633 19.3393 29.77C18.8993 28.97 18.6793 28.0467 18.6793 27V22.82C18.6793 21.6867 18.8993 20.71 19.3393 19.89C19.7793 19.0633 20.3993 18.43 21.1993 17.99C21.9993 17.5433 22.9393 17.32 24.0193 17.32C24.7193 17.32 25.386 17.4233 26.0193 17.63C26.6526 17.8367 27.2326 18.1867 27.7593 18.68L25.8193 20.62C25.5793 20.38 25.3026 20.1933 24.9893 20.06C24.676 19.9267 24.3526 19.86 24.0193 19.86C23.4993 19.86 23.046 19.9833 22.6593 20.23C22.2793 20.47 21.9826 20.7867 21.7693 21.18C21.5626 21.5667 21.4593 21.98 21.4593 22.42V24.56L20.9993 24.06C21.4126 23.64 21.8893 23.32 22.4293 23.1C22.976 22.8733 23.5393 22.76 24.1193 22.76C25.026 22.76 25.8226 22.9633 26.5093 23.37C27.2026 23.7767 27.7426 24.3333 28.1293 25.04C28.5226 25.7467 28.7193 26.5533 28.7193 27.46C28.7193 28.3667 28.4893 29.1867 28.0293 29.92C27.5693 30.6467 26.9593 31.2267 26.1993 31.66C25.4393 32.0867 24.606 32.3 23.6993 32.3ZM23.6993 29.7C24.1126 29.7 24.4893 29.6 24.8293 29.4C25.176 29.2 25.4493 28.93 25.6493 28.59C25.856 28.25 25.9593 27.8733 25.9593 27.46C25.9593 27.0467 25.8593 26.67 25.6593 26.33C25.4593 25.9833 25.1893 25.71 24.8493 25.51C24.5093 25.3033 24.1326 25.2 23.7193 25.2C23.306 25.2 22.926 25.3033 22.5793 25.51C22.2393 25.71 21.966 25.9833 21.7593 26.33C21.5593 26.67 21.4593 27.0467 21.4593 27.46C21.4593 27.86 21.5593 28.23 21.7593 28.57C21.9593 28.91 22.2293 29.1833 22.5693 29.39C22.9093 29.5967 23.286 29.7 23.6993 29.7Z" fill="#A1C038"/>
</svg>
