<svg width="48" height="48" viewBox="0 0 48 48" fill="none" xmlns="http://www.w3.org/2000/svg">
<path d="M24.0007 27.7C23.7407 27.7 23.4807 27.64 23.2607 27.5C22.5407 27.08 22.3007 26.16 22.7007 25.46L24.4007 22.5H22.7207C21.7207 22.5 20.9007 22.06 20.4607 21.32C20.0207 20.56 20.0607 19.64 20.5607 18.76L22.7007 15.04C23.1207 14.32 24.0407 14.08 24.7407 14.48C25.4607 14.9 25.7007 15.82 25.3007 16.52L23.6007 19.5H25.2807C26.2807 19.5 27.1007 19.94 27.5407 20.68C27.9807 21.44 27.9407 22.36 27.4407 23.24L25.3007 26.96C25.0207 27.44 24.5207 27.7 24.0007 27.7Z" fill="#A1C038"/>
<path d="M29.5383 39.5001H18.5183C17.6383 39.5001 16.5183 39.4001 15.7783 38.6401C15.0583 37.9001 15.0783 36.9801 15.0983 36.3601V34.5801C10.0583 31.2201 6.73828 25.3801 6.73828 19.8201C6.73828 14.5601 9.09828 9.64009 13.1983 6.34009C17.2983 3.04009 22.6783 1.80009 27.9383 2.96009C32.9383 4.06009 37.2583 7.40009 39.4983 11.9001C43.8383 20.6401 39.6583 30.1001 32.9783 34.6001V36.1001C32.9983 36.6801 33.0183 37.7401 32.1983 38.5801C31.5783 39.1801 30.6983 39.5001 29.5383 39.5001ZM18.0783 36.4801C18.1783 36.4801 18.3183 36.5001 18.4983 36.5001H29.5383C29.7383 36.5001 29.8783 36.4801 29.9583 36.4601C29.9583 36.4001 29.9583 36.3201 29.9583 36.2601V33.7401C29.9583 33.2201 30.2383 32.7201 30.6783 32.4601C36.5983 28.8801 40.5183 20.7001 36.7783 13.2001C34.9383 9.50009 31.3783 6.76009 27.2583 5.86009C22.8983 4.90009 18.4383 5.92009 15.0383 8.66009C11.6383 11.4001 9.69828 15.4601 9.69828 19.8201C9.69828 25.3801 13.5383 30.1801 17.3383 32.4801C17.7983 32.7601 18.0583 33.2401 18.0583 33.7601V36.4601C18.0783 36.4601 18.0783 36.4601 18.0783 36.4801Z" fill="#074C31"/>
<path d="M30.9986 45.4999C30.8586 45.4999 30.7186 45.4799 30.5786 45.4399C26.2586 44.1999 21.7186 44.1999 17.3986 45.4399C16.5986 45.6599 15.7786 45.1999 15.5386 44.3999C15.2986 43.5999 15.7786 42.7799 16.5786 42.5399C21.4186 41.1599 26.5586 41.1599 31.3986 42.5399C32.1986 42.7599 32.6586 43.5999 32.4386 44.3999C32.2586 45.0799 31.6586 45.4999 30.9986 45.4999Z" fill="#074C31"/>
</svg>
