<svg width="48" height="48" viewBox="0 0 48 48" fill="none" xmlns="http://www.w3.org/2000/svg">
<path d="M32.4812 45.34C31.6212 45.34 30.5413 45.08 29.2013 44.28L24.7212 41.62C24.3812 41.42 23.6213 41.42 23.2813 41.62L18.8012 44.28C15.9612 45.96 14.2412 45.26 13.4812 44.7C12.7212 44.14 11.5213 42.7 12.2613 39.5L13.3212 34.88C13.4012 34.52 13.2012 33.84 12.9412 33.56L9.22121 29.84C7.22121 27.84 7.38122 26.1 7.66122 25.22C7.94122 24.34 8.82122 22.84 11.6012 22.36L16.3812 21.56C16.7212 21.5 17.2613 21.1 17.4013 20.8L20.0412 15.52C21.3412 12.94 23.0612 12.54 23.9812 12.54C24.9012 12.54 26.6212 12.92 27.9212 15.52L30.5612 20.8C30.7212 21.1 31.2613 21.5 31.5813 21.56L36.3612 22.36C39.1412 22.82 40.0212 24.34 40.3012 25.22C40.5812 26.1 40.7412 27.84 38.7412 29.84L35.0213 33.56C34.7613 33.82 34.5613 34.52 34.6413 34.88L35.7013 39.48C36.4413 42.7 35.2612 44.12 34.4812 44.68C34.1212 45 33.4412 45.34 32.4812 45.34ZM24.0012 38.48C24.8012 38.48 25.6012 38.66 26.2412 39.04L30.7212 41.7C31.9012 42.4 32.6012 42.4 32.7412 42.28C32.9012 42.16 33.1012 41.5 32.8012 40.18L31.7412 35.58C31.4212 34.22 31.9412 32.46 32.9212 31.48L36.6413 27.76C37.3813 27.02 37.5413 26.44 37.4613 26.18C37.3813 25.92 36.9212 25.54 35.8812 25.38L31.1012 24.58C29.8212 24.36 28.4612 23.36 27.8812 22.2L25.2412 16.92C24.7812 16.02 24.2812 15.6 23.9812 15.6C23.6812 15.6 23.1812 16 22.7212 16.92L20.0813 22.2C19.5013 23.36 18.1412 24.36 16.8612 24.58L12.0813 25.38C11.0413 25.56 10.5812 25.92 10.5012 26.18C10.4212 26.44 10.5812 27.02 11.3212 27.76L15.0412 31.48C16.0212 32.46 16.5412 34.24 16.2212 35.58L15.1612 40.2C14.8612 41.54 15.0612 42.2 15.2212 42.3C15.3812 42.42 16.0812 42.42 17.2412 41.72L21.7212 39.06C22.4012 38.68 23.2012 38.48 24.0012 38.48Z" fill="#074C31"/>
<path d="M12 19.5C11.18 19.5 10.5 18.82 10.5 18V4C10.5 3.18 11.18 2.5 12 2.5C12.82 2.5 13.5 3.18 13.5 4V18C13.5 18.82 12.82 19.5 12 19.5Z" fill="#A1C038"/>
<path d="M36 19.5C35.18 19.5 34.5 18.82 34.5 18V4C34.5 3.18 35.18 2.5 36 2.5C36.82 2.5 37.5 3.18 37.5 4V18C37.5 18.82 36.82 19.5 36 19.5Z" fill="#A1C038"/>
<path d="M24 9.5C23.18 9.5 22.5 8.82 22.5 8V4C22.5 3.18 23.18 2.5 24 2.5C24.82 2.5 25.5 3.18 25.5 4V8C25.5 8.82 24.82 9.5 24 9.5Z" fill="#A1C038"/>
</svg>
