<svg width="48" height="48" viewBox="0 0 48 48" fill="none" xmlns="http://www.w3.org/2000/svg">
<path d="M18 43.5H16C15.18 43.5 14.5 42.82 14.5 42C14.5 41.18 15.14 40.52 15.96 40.5C12.82 29.78 12.82 18.22 15.96 7.5C15.14 7.48 14.5 6.82 14.5 6C14.5 5.18 15.18 4.5 16 4.5H18C18.48 4.5 18.94 4.74 19.22 5.12C19.5 5.52 19.58 6.02 19.42 6.48C15.66 17.78 15.66 30.22 19.42 41.54C19.58 42 19.5 42.5 19.22 42.9C18.94 43.26 18.48 43.5 18 43.5Z" fill="#074C31"/>
<path d="M30.0008 43.4999C29.8408 43.4999 29.6808 43.4799 29.5208 43.4199C28.7408 43.1599 28.3008 42.2999 28.5808 41.5199C32.3408 30.2199 32.3408 17.7799 28.5808 6.45987C28.3208 5.67987 28.7408 4.81987 29.5208 4.55987C30.3208 4.29987 31.1608 4.71987 31.4208 5.49987C35.4008 17.4199 35.4008 30.5399 31.4208 42.4399C31.2208 43.0999 30.6208 43.4999 30.0008 43.4999Z" fill="#074C31"/>
<path d="M24 34.4001C18.42 34.4001 12.86 33.6201 7.5 32.0401C7.48 32.8401 6.82 33.5001 6 33.5001C5.18 33.5001 4.5 32.8201 4.5 32.0001V30.0001C4.5 29.5201 4.74 29.0601 5.12 28.7801C5.52 28.5001 6.02 28.4201 6.48 28.5801C17.78 32.3401 30.24 32.3401 41.54 28.5801C42 28.4201 42.5 28.5001 42.9 28.7801C43.3 29.0601 43.52 29.5201 43.52 30.0001V32.0001C43.52 32.8201 42.84 33.5001 42.02 33.5001C41.2 33.5001 40.54 32.8601 40.52 32.0401C35.14 33.6201 29.58 34.4001 24 34.4001Z" fill="#A1C038"/>
<path d="M42.0001 19.5C41.8401 19.5 41.6801 19.48 41.5201 19.42C30.2201 15.66 17.7601 15.66 6.46006 19.42C5.66006 19.68 4.82006 19.26 4.56006 18.48C4.32006 17.68 4.74006 16.84 5.52006 16.58C17.4401 12.6 30.5601 12.6 42.4601 16.58C43.2401 16.84 43.6801 17.7 43.4001 18.48C43.2201 19.1 42.6201 19.5 42.0001 19.5Z" fill="#A1C038"/>
<path d="M24 45.5C12.14 45.5 2.5 35.86 2.5 24C2.5 12.14 12.14 2.5 24 2.5C35.86 2.5 45.5 12.14 45.5 24C45.5 35.86 35.86 45.5 24 45.5ZM24 5.5C13.8 5.5 5.5 13.8 5.5 24C5.5 34.2 13.8 42.5 24 42.5C34.2 42.5 42.5 34.2 42.5 24C42.5 13.8 34.2 5.5 24 5.5Z" fill="#074C31"/>
</svg>
