<svg width="48" height="48" viewBox="0 0 48 48" fill="none" xmlns="http://www.w3.org/2000/svg">
<path d="M24 45.5C12.14 45.5 2.5 35.86 2.5 24C2.5 12.14 12.14 2.5 24 2.5C24.82 2.5 25.5 3.18 25.5 4C25.5 4.82 24.82 5.5 24 5.5C13.8 5.5 5.5 13.8 5.5 24C5.5 34.2 13.8 42.5 24 42.5C34.2 42.5 42.5 34.2 42.5 24C42.5 23.18 43.18 22.5 44 22.5C44.82 22.5 45.5 23.18 45.5 24C45.5 35.86 35.86 45.5 24 45.5Z" fill="#074C31"/>
<path d="M30.093 8.21456C29.8712 8.87606 30.0528 9.58859 30.5668 10.0741L32.6751 12.0654L32.1774 14.8773C32.056 15.563 32.3414 16.2428 32.9222 16.6516C33.503 17.0604 34.2585 17.1133 34.8939 16.7897L37.5 15.4621L40.1061 16.7897C40.3825 16.9304 40.6815 17 40.9791 17C41.3657 17 41.7497 16.8826 42.0778 16.6516C42.6586 16.2428 42.944 15.563 42.8226 14.8773L42.3249 12.0654L44.4332 10.0741C44.9472 9.58859 45.1288 8.87606 44.907 8.21456C44.6852 7.55305 44.1062 7.07988 43.3956 6.97978L40.4819 6.56952L39.1788 4.01123C38.8613 3.38743 38.218 3 37.5001 3C36.7822 3 36.1389 3.38743 35.8212 4.01123L34.5182 6.56952L31.6043 6.97978C30.8938 7.07988 30.3148 7.55305 30.093 8.21456ZM35.5872 9.01053C36.0183 8.94983 36.3909 8.68756 36.5837 8.3091L37.5001 6.50994L38.4165 8.3091C38.6093 8.68756 38.9819 8.94983 39.4129 9.01053L41.4621 9.29905L39.9793 10.6996C39.6674 10.9942 39.5251 11.4186 39.5987 11.8346L39.9486 13.812L38.1159 12.8783C37.7304 12.6819 37.2697 12.6819 36.8843 12.8783L35.0515 13.812L35.4015 11.8346C35.4751 11.4186 35.3328 10.9942 35.0209 10.6996L33.5381 9.29905L35.5872 9.01053Z" fill="#A1C038"/>
<path d="M23.2913 32.3C22.5647 32.3 21.8813 32.15 21.2413 31.85C20.608 31.55 20.0613 31.1333 19.6013 30.6C19.1413 30.0667 18.8113 29.4467 18.6113 28.74L21.2313 28.04C21.318 28.38 21.4713 28.6733 21.6913 28.92C21.918 29.1667 22.178 29.36 22.4713 29.5C22.7713 29.6333 23.078 29.7 23.3913 29.7C23.8047 29.7 24.1813 29.6 24.5213 29.4C24.868 29.2 25.1413 28.93 25.3413 28.59C25.548 28.25 25.6513 27.8733 25.6513 27.46C25.6513 27.0467 25.548 26.67 25.3413 26.33C25.1413 25.99 24.868 25.72 24.5213 25.52C24.1813 25.32 23.8047 25.22 23.3913 25.22C22.8847 25.22 22.4713 25.3067 22.1513 25.48C21.8313 25.6467 21.5913 25.8067 21.4313 25.96L19.1313 25.26L19.5713 17.6H27.4313V20.14H21.0713L22.0313 19.24L21.7313 24.18L21.2713 23.62C21.6313 23.3267 22.0413 23.1133 22.5013 22.98C22.9613 22.8467 23.3913 22.78 23.7913 22.78C24.698 22.78 25.4947 22.9833 26.1813 23.39C26.8747 23.79 27.4147 24.3433 27.8013 25.05C28.1947 25.75 28.3913 26.5533 28.3913 27.46C28.3913 28.3667 28.1547 29.1867 27.6813 29.92C27.208 30.6467 26.5847 31.2267 25.8113 31.66C25.038 32.0867 24.198 32.3 23.2913 32.3Z" fill="#A1C038"/>
</svg>
