<svg width="48" height="48" viewBox="0 0 48 48" fill="none" xmlns="http://www.w3.org/2000/svg">
<path d="M24 45.5C12.14 45.5 2.5 35.86 2.5 24C2.5 12.14 12.14 2.5 24 2.5C24.82 2.5 25.5 3.18 25.5 4C25.5 4.82 24.82 5.5 24 5.5C13.8 5.5 5.5 13.8 5.5 24C5.5 34.2 13.8 42.5 24 42.5C34.2 42.5 42.5 34.2 42.5 24C42.5 23.18 43.18 22.5 44 22.5C44.82 22.5 45.5 23.18 45.5 24C45.5 35.86 35.86 45.5 24 45.5Z" fill="#074C31"/>
<path d="M30.093 8.21456C29.8712 8.87606 30.0528 9.58859 30.5668 10.0741L32.6751 12.0654L32.1774 14.8773C32.056 15.563 32.3414 16.2428 32.9222 16.6516C33.503 17.0604 34.2585 17.1133 34.8939 16.7897L37.5 15.4621L40.1061 16.7897C40.3825 16.9304 40.6815 17 40.9791 17C41.3657 17 41.7497 16.8826 42.0778 16.6516C42.6586 16.2428 42.944 15.563 42.8226 14.8773L42.3249 12.0654L44.4332 10.0741C44.9472 9.58859 45.1288 8.87606 44.907 8.21456C44.6852 7.55305 44.1062 7.07988 43.3956 6.97978L40.4819 6.56952L39.1788 4.01123C38.8613 3.38743 38.218 3 37.5001 3C36.7822 3 36.1389 3.38743 35.8212 4.01123L34.5182 6.56952L31.6043 6.97978C30.8938 7.07988 30.3148 7.55305 30.093 8.21456ZM35.5872 9.01053C36.0183 8.94983 36.3909 8.68756 36.5837 8.3091L37.5001 6.50994L38.4165 8.3091C38.6093 8.68756 38.9819 8.94983 39.4129 9.01053L41.4621 9.29905L39.9793 10.6996C39.6674 10.9942 39.5251 11.4186 39.5987 11.8346L39.9486 13.812L38.1159 12.8783C37.7304 12.6819 37.2697 12.6819 36.8843 12.8783L35.0515 13.812L35.4015 11.8346C35.4751 11.4186 35.3328 10.9942 35.0209 10.6996L33.5381 9.29905L35.5872 9.01053Z" fill="#A1C038"/>
<path d="M23.1918 32.26C22.4718 32.26 21.7851 32.1167 21.1318 31.83C20.4785 31.5367 19.9085 31.1267 19.4218 30.6C18.9418 30.0733 18.5985 29.4533 18.3918 28.74L21.0318 28.04C21.1718 28.5667 21.4451 28.9767 21.8518 29.27C22.2651 29.5567 22.7118 29.7 23.1918 29.7C23.6051 29.7 23.9818 29.6 24.3218 29.4C24.6685 29.2 24.9418 28.93 25.1418 28.59C25.3485 28.25 25.4518 27.8733 25.4518 27.46C25.4518 26.84 25.2385 26.31 24.8118 25.87C24.3918 25.4233 23.8518 25.2 23.1918 25.2C22.9918 25.2 22.7985 25.23 22.6118 25.29C22.4251 25.3433 22.2451 25.42 22.0718 25.52L20.8518 23.38L25.4318 19.58L25.6318 20.16H18.9518V17.6H27.9518V20.16L24.3918 23.6L24.3718 22.84C25.1985 22.9667 25.8951 23.2567 26.4618 23.71C27.0351 24.1567 27.4685 24.71 27.7618 25.37C28.0618 26.0233 28.2118 26.72 28.2118 27.46C28.2118 28.3667 27.9818 29.1833 27.5218 29.91C27.0618 30.63 26.4518 31.2033 25.6918 31.63C24.9318 32.05 24.0985 32.26 23.1918 32.26Z" fill="#A1C038"/>
</svg>
