<svg width="48" height="48" viewBox="0 0 48 48" fill="none" xmlns="http://www.w3.org/2000/svg">
<path d="M24 45.5C12.14 45.5 2.5 35.86 2.5 24C2.5 12.14 12.14 2.5 24 2.5C24.82 2.5 25.5 3.18 25.5 4C25.5 4.82 24.82 5.5 24 5.5C13.8 5.5 5.5 13.8 5.5 24C5.5 34.2 13.8 42.5 24 42.5C34.2 42.5 42.5 34.2 42.5 24C42.5 23.18 43.18 22.5 44 22.5C44.82 22.5 45.5 23.18 45.5 24C45.5 35.86 35.86 45.5 24 45.5Z" fill="#074C31"/>
<path d="M30.093 8.21456C29.8712 8.87606 30.0528 9.58859 30.5668 10.0741L32.6751 12.0654L32.1774 14.8773C32.056 15.563 32.3414 16.2428 32.9222 16.6516C33.503 17.0604 34.2585 17.1133 34.8939 16.7897L37.5 15.4621L40.1061 16.7897C40.3825 16.9304 40.6815 17 40.9791 17C41.3657 17 41.7497 16.8826 42.0778 16.6516C42.6586 16.2428 42.944 15.563 42.8226 14.8773L42.3249 12.0654L44.4332 10.0741C44.9472 9.58859 45.1288 8.87606 44.907 8.21456C44.6852 7.55305 44.1062 7.07988 43.3956 6.97978L40.4819 6.56952L39.1788 4.01123C38.8613 3.38743 38.218 3 37.5001 3C36.7822 3 36.1389 3.38743 35.8212 4.01123L34.5182 6.56952L31.6043 6.97978C30.8938 7.07988 30.3148 7.55305 30.093 8.21456ZM35.5872 9.01053C36.0183 8.94983 36.3909 8.68756 36.5837 8.3091L37.5001 6.50994L38.4165 8.3091C38.6093 8.68756 38.9819 8.94983 39.4129 9.01053L41.4621 9.29905L39.9793 10.6996C39.6674 10.9942 39.5251 11.4186 39.5987 11.8346L39.9486 13.812L38.1159 12.8783C37.7304 12.6819 37.2697 12.6819 36.8843 12.8783L35.0515 13.812L35.4015 11.8346C35.4751 11.4186 35.3328 10.9942 35.0209 10.6996L33.5381 9.29905L35.5872 9.01053Z" fill="#A1C038"/>
<path d="M18.4648 31.98V29.62L24.5048 24.26C24.9582 23.86 25.2782 23.4833 25.4648 23.13C25.6515 22.7767 25.7448 22.4467 25.7448 22.14C25.7448 21.7 25.6548 21.31 25.4748 20.97C25.2948 20.6233 25.0415 20.3533 24.7148 20.16C24.3882 19.96 24.0048 19.86 23.5648 19.86C23.1048 19.86 22.6982 19.9667 22.3448 20.18C21.9982 20.3867 21.7282 20.6633 21.5348 21.01C21.3415 21.35 21.2515 21.72 21.2648 22.12H18.4648C18.4648 21.1333 18.6815 20.28 19.1148 19.56C19.5482 18.84 20.1515 18.2833 20.9248 17.89C21.6982 17.4967 22.5982 17.3 23.6248 17.3C24.5648 17.3 25.4048 17.5067 26.1448 17.92C26.8915 18.3267 27.4782 18.8967 27.9048 19.63C28.3315 20.3633 28.5448 21.2133 28.5448 22.18C28.5448 22.8933 28.4448 23.4867 28.2448 23.96C28.0448 24.4267 27.7482 24.86 27.3548 25.26C26.9615 25.6533 26.4782 26.1 25.9048 26.6L22.0048 30.02L21.7848 29.42H28.5448V31.98H18.4648Z" fill="#A1C038"/>
</svg>
