<svg width="48" height="48" viewBox="0 0 48 48" fill="none" xmlns="http://www.w3.org/2000/svg">
<path d="M24 45.5C12.14 45.5 2.5 35.86 2.5 24C2.5 12.14 12.14 2.5 24 2.5C35.86 2.5 45.5 12.14 45.5 24C45.5 35.86 35.86 45.5 24 45.5ZM24 5.5C13.8 5.5 5.5 13.8 5.5 24C5.5 34.2 13.8 42.5 24 42.5C34.2 42.5 42.5 34.2 42.5 24C42.5 13.8 34.2 5.5 24 5.5Z" fill="#074C31"/>
<path d="M23.9987 36.5C23.5787 36.5 23.1787 36.44 22.8387 36.32C18.5387 34.86 11.7188 29.62 11.7188 21.82C11.7188 17.66 15.0788 14.28 19.2188 14.28C21.0187 14.28 22.6787 14.9 24.0187 16.02C25.3587 14.9 27.0387 14.28 28.7987 14.28C32.9387 14.28 36.2987 17.66 36.2987 21.82C36.2987 29.6 29.4788 34.84 25.1588 36.32C24.8188 36.44 24.3987 36.5 23.9987 36.5ZM19.1988 17.3C16.7188 17.3 14.6988 19.34 14.6988 21.84C14.6988 28.82 21.4387 32.7 23.7987 33.5C23.8787 33.52 24.0788 33.52 24.1588 33.5C26.5188 32.7 33.2588 28.82 33.2588 21.84C33.2588 19.34 31.2388 17.3 28.7588 17.3C27.3588 17.3 26.0187 17.98 25.1787 19.12C24.6187 19.88 23.3387 19.88 22.7787 19.12C21.9387 17.96 20.6388 17.3 19.1988 17.3Z" fill="#A1C038"/>
</svg>
