<svg width="48" height="48" viewBox="0 0 48 48" fill="none" xmlns="http://www.w3.org/2000/svg">
<path d="M35.58 45.4799H12.42C6.94 45.4799 2.5 41.0199 2.5 35.5399V20.7199C2.5 17.9999 4.18 14.5799 6.34 12.8999L17.12 4.49993C20.36 1.97993 25.54 1.85993 28.9 4.21993L41.26 12.8799C43.64 14.5399 45.5 18.0999 45.5 20.9999V35.5599C45.5 41.0199 41.06 45.4799 35.58 45.4799ZM18.96 6.85993L8.18 15.2599C6.76 16.3799 5.5 18.9199 5.5 20.7199V35.5399C5.5 39.3599 8.6 42.4799 12.42 42.4799H35.58C39.4 42.4799 42.5 39.3799 42.5 35.5599V20.9999C42.5 19.0799 41.12 16.4199 39.54 15.3399L27.18 6.67993C24.9 5.07993 21.14 5.15993 18.96 6.85993Z" fill="#074C31"/>
<path d="M14.9989 34.4999C14.6189 34.4999 14.2389 34.3599 13.9389 34.0599C13.3589 33.4799 13.3589 32.5199 13.9389 31.9399L20.3389 25.5399C20.6589 25.2199 21.0789 25.0599 21.5389 25.0999C21.9789 25.1399 22.3789 25.3799 22.6389 25.7599L24.8189 29.0399L31.9189 21.9399C32.4989 21.3599 33.4589 21.3599 34.0389 21.9399C34.6189 22.5199 34.6189 23.4799 34.0389 24.0599L25.6389 32.4599C25.3189 32.7799 24.8989 32.9399 24.4389 32.8999C23.9989 32.8599 23.5989 32.6199 23.3389 32.2399L21.1589 28.9599L16.0589 34.0599C15.7589 34.3599 15.3789 34.4999 14.9989 34.4999Z" fill="#A1C038"/>
<path d="M33 28.5C32.18 28.5 31.5 27.82 31.5 27V24.5H29C28.18 24.5 27.5 23.82 27.5 23C27.5 22.18 28.18 21.5 29 21.5H33C33.82 21.5 34.5 22.18 34.5 23V27C34.5 27.82 33.82 28.5 33 28.5Z" fill="#A1C038"/>
</svg>
