<svg width="48" height="48" viewBox="0 0 48 48" fill="none" xmlns="http://www.w3.org/2000/svg">
<path fill-rule="evenodd" clip-rule="evenodd" d="M16.3289 5.973C13.5853 6.71056 10.8596 7.51278 8.15389 8.379C7.90904 8.45458 7.69047 8.59771 7.52331 8.79194C7.35614 8.98617 7.24717 9.22362 7.20889 9.477C5.60989 21.168 9.29989 29.7 13.7009 35.319C15.9089 38.139 18.2999 40.227 20.2919 41.598C21.2909 42.282 22.1699 42.78 22.8629 43.098C23.2109 43.257 23.4929 43.365 23.7089 43.428C23.8041 43.4586 23.9014 43.4827 23.9999 43.5C24.0209 43.497 24.1139 43.485 24.2909 43.431C24.5069 43.365 24.7889 43.257 25.1369 43.098C25.8269 42.78 26.7119 42.282 27.7079 41.598C30.2058 39.8454 32.4273 37.729 34.2989 35.319C38.6999 29.7 42.3899 21.168 40.7909 9.477C40.7526 9.22362 40.6436 8.98617 40.4765 8.79194C40.3093 8.59771 40.0907 8.45458 39.8459 8.379C37.9679 7.779 34.7999 6.801 31.6709 5.973C28.4729 5.13 25.5299 4.5 23.9999 4.5C22.4699 4.5 19.5299 5.13 16.3289 5.973ZM15.5609 3.075C18.6899 2.247 22.0109 1.5 23.9999 1.5C25.9859 1.5 29.3099 2.247 32.4389 3.075C35.2298 3.82432 38.0026 4.63955 40.7549 5.52C42.3389 6.024 43.5329 7.389 43.7639 9.072C45.4829 21.663 41.4959 30.993 36.6629 37.167C34.6033 39.8166 32.1582 42.1425 29.4089 44.067C28.4529 44.7366 27.4424 45.3247 26.3879 45.825C25.5779 46.197 24.7139 46.5 23.9999 46.5C23.2859 46.5 22.4219 46.197 21.6119 45.825C20.5572 45.3251 19.5466 44.737 18.5909 44.067C15.8427 42.1422 13.3986 39.8164 11.3399 37.167C6.50089 30.993 2.51689 21.663 4.23589 9.072C4.35083 8.25621 4.69444 7.48965 5.22695 6.86104C5.75946 6.23244 6.4591 5.76748 7.24489 5.52C9.99724 4.63957 12.77 3.82435 15.5609 3.075V3.075Z" fill="#074C31"/>
<path fill-rule="evenodd" clip-rule="evenodd" d="M32.5619 18.4407C32.7016 18.58 32.8125 18.7455 32.8881 18.9278C32.9637 19.11 33.0026 19.3054 33.0026 19.5027C33.0026 19.7 32.9637 19.8953 32.8881 20.0776C32.8125 20.2598 32.7016 20.4253 32.5619 20.5647L23.5619 29.5647C23.4226 29.7044 23.2571 29.8152 23.0748 29.8908C22.8926 29.9664 22.6972 30.0054 22.4999 30.0054C22.3026 30.0054 22.1073 29.9664 21.925 29.8908C21.7428 29.8152 21.5773 29.7044 21.4379 29.5647L16.9379 25.0647C16.7985 24.9252 16.6878 24.7596 16.6124 24.5774C16.5369 24.3952 16.498 24.1999 16.498 24.0027C16.498 23.8054 16.5369 23.6101 16.6124 23.4279C16.6878 23.2457 16.7985 23.0801 16.9379 22.9407C17.0774 22.8012 17.243 22.6906 17.4252 22.6151C17.6074 22.5396 17.8027 22.5008 17.9999 22.5008C18.1972 22.5008 18.3925 22.5396 18.5747 22.6151C18.7569 22.6906 18.9225 22.8012 19.0619 22.9407L22.4999 26.3817L30.4379 18.4407C30.5773 18.301 30.7428 18.1902 30.925 18.1145C31.1073 18.0389 31.3026 18 31.4999 18C31.6972 18 31.8926 18.0389 32.0748 18.1145C32.2571 18.1902 32.4226 18.301 32.5619 18.4407V18.4407Z" fill="#A1C038"/>
</svg>
